<?xml version="1.0" encoding="UTF-8" standalone="no"?>
<!-- Created with Inkscape (http://www.inkscape.org/) -->

<svg
   xmlns:dc="http://purl.org/dc/elements/1.1/"
   xmlns:cc="http://creativecommons.org/ns#"
   xmlns:rdf="http://www.w3.org/1999/02/22-rdf-syntax-ns#"
   xmlns:svg="http://www.w3.org/2000/svg"
   xmlns="http://www.w3.org/2000/svg"
   xmlns:sodipodi="http://sodipodi.sourceforge.net/DTD/sodipodi-0.dtd"
   xmlns:inkscape="http://www.inkscape.org/namespaces/inkscape"
   width="210mm"
   height="297mm"
   viewBox="0 0 210 297"
   version="1.1"
   id="svg8"
   inkscape:version="0.92.4 (fd57863, 2020-04-02)"
   sodipodi:docname="O.svg">
  <defs
     id="defs2" />
  <sodipodi:namedview
     id="base"
     pagecolor="#ffffff"
     bordercolor="#666666"
     borderopacity="1.0"
     inkscape:pageopacity="0.0"
     inkscape:pageshadow="2"
     inkscape:zoom="0.35"
     inkscape:cx="400"
     inkscape:cy="560"
     inkscape:document-units="mm"
     inkscape:current-layer="layer1"
     showgrid="false"
     inkscape:window-width="1280"
     inkscape:window-height="926"
     inkscape:window-x="1984"
     inkscape:window-y="81"
     inkscape:window-maximized="1" />
  <metadata
     id="metadata5">
    <rdf:RDF>
      <cc:Work
         rdf:about="">
        <dc:format>image/svg+xml</dc:format>
        <dc:type
           rdf:resource="http://purl.org/dc/dcmitype/StillImage" />
        <dc:title></dc:title>
      </cc:Work>
    </rdf:RDF>
  </metadata>
  <g
     inkscape:label="Livello 1"
     inkscape:groupmode="layer"
     id="layer1">
    <path
       id="path16"
       d="m 89.466509,75.189701 c -2.897108,0.611735 -5.669698,1.614032 -8.446622,2.629471 -0.70612,0.24374 -1.423032,0.458214 -2.118363,0.731216 -0.842573,0.330814 -3.699266,1.651267 -4.499512,2.000806 -2.407875,1.051734 -4.847595,2.006129 -7.2421,3.089465 -3.811733,1.606375 -7.498662,3.44674 -11.081113,5.508749 15.024949,-8.8618 8.271849,-4.992954 5.212998,-2.593348 -1.26687,0.993831 -2.458286,2.069627 -3.644897,3.15621 -1.986844,1.825768 -3.893772,3.725182 -5.548103,5.859113 -1.84576,2.326505 -3.335139,4.825127 -4.380781,7.600997 -1.436124,3.33209 -2.091798,6.85708 -2.463456,10.44311 -0.282895,3.5377 -0.386889,7.09624 -0.23958,10.64269 0.105032,3.03138 0.928484,5.92837 2.041866,8.72622 1.385642,3.32294 2.785298,6.62272 4.372235,9.85521 2.044372,3.84582 4.379052,7.53187 6.91552,11.07002 2.492264,3.34495 5.313328,6.42413 8.286517,9.34323 3.220186,2.7957 6.657549,5.31821 10.177648,7.71892 3.156997,2.13388 6.79755,3.24129 10.254173,4.74429 3.022332,1.36915 6.226066,2.25374 9.452908,2.98538 3.646673,0.67889 7.311863,1.19777 11.010453,1.47647 3.24381,0.20401 6.49538,0.19907 9.74402,0.22472 3.90124,0.12973 7.78409,-0.11593 11.67338,-0.37233 3.95326,-0.74706 7.89666,-1.71906 11.66054,-3.15177 1.74806,-0.72147 3.47548,-1.49338 5.13528,-2.40209 0.53335,-0.292 2.11055,-1.20877 1.58132,-0.90936 -8.1577,4.61508 -10.25463,6.10809 -6.27914,3.39212 2.58847,-1.73417 4.54155,-4.17075 6.39903,-6.63043 1.5291,-2.26365 2.73623,-4.73868 3.86218,-7.22291 1.20323,-2.95888 2.46708,-5.89083 3.6969,-8.83849 1.16874,-2.64746 1.54734,-5.49725 1.76101,-8.35395 0.17077,-3.31253 0.15575,-6.63023 0.16589,-9.946 -0.002,-3.95952 0.004,-7.91928 -0.0288,-11.87869 -0.0109,-3.76724 -0.90948,-7.45204 -2.06434,-11.01494 -1.18037,-3.11293 -2.49966,-6.15339 -4.09306,-9.07749 -1.90575,-3.28577 -4.4433,-6.111421 -7.23912,-8.655784 -3.05322,-2.77033 -6.36057,-5.237782 -9.77545,-7.540471 -3.01967,-1.685878 -5.86845,-3.670742 -8.93885,-5.262566 -2.57592,-1.03986 -4.931,-2.514009 -7.41558,-3.736289 -2.21172,-1.082781 -4.64118,-1.517208 -6.939,-2.32604 -2.70252,-1.061783 -5.53737,-1.659895 -8.37692,-2.220991 -3.015454,-0.563703 -6.081583,-0.705806 -9.141151,-0.777973 -2.840159,-0.156427 -5.762469,-0.182994 -8.538681,-0.84432 0,0 9.071438,-6.316279 9.071438,-6.316279 v 0 c 2.774511,0.464074 5.60092,0.634209 8.410954,0.705207 3.09039,0.120288 6.18282,0.313317 9.21791,0.950855 2.88425,0.597053 5.7619,1.222306 8.52334,2.270871 2.38557,0.697351 4.76097,1.405085 7.01706,2.473478 2.47537,1.246188 4.83361,2.720065 7.4007,3.788114 3.03591,1.693291 5.9046,3.665183 8.90356,5.423241 3.42627,2.370481 6.78777,4.845468 9.85208,7.676594 2.86467,2.64863 5.5183,5.533896 7.49429,8.923084 1.62964,2.986379 2.9984,6.070829 4.15597,9.272109 1.20895,3.65794 2.13544,7.44763 2.23193,11.31698 -0.0251,3.96184 -0.007,7.92397 0.0121,11.88581 0.0238,3.32016 0.0907,6.64424 -0.0304,9.96255 -0.1763,2.95535 -0.4952,5.9454 -1.65283,8.70091 -1.2177,2.9507 -2.4871,5.87422 -3.67539,8.83666 -1.0176,2.58468 -2.33029,5.05882 -3.72661,7.45697 -1.87955,2.51917 -3.77565,5.12169 -6.34544,6.98365 -5.94277,4.27332 -12.44076,7.92129 -19.23906,10.65694 -3.84291,1.31551 -7.81819,2.3823 -11.8488,2.90875 -3.91033,0.25284 -7.82037,0.41976 -11.74041,0.32885 -3.2755,0.006 -6.5578,0.009 -9.823466,-0.27776 -3.723248,-0.351 -7.415384,-0.93538 -11.092627,-1.61361 -3.263876,-0.78703 -6.508138,-1.68882 -9.544473,-3.15319 -3.527049,-1.47644 -7.161548,-2.74375 -10.329447,-4.95022 -3.569059,-2.43677 -6.985262,-5.08336 -10.283576,-7.87623 -3.037266,-2.9392 -5.806564,-6.15226 -8.33856,-9.53642 -2.567623,-3.58838 -4.978654,-7.29258 -7.041394,-11.19761 -1.634955,-3.23723 -3.122665,-6.52406 -4.502494,-9.87768 -1.198385,-2.89508 -2.098638,-5.89894 -2.201994,-9.05736 -0.220562,-3.60101 0.01175,-7.21424 0.201983,-10.81296 0.370382,-3.62838 0.832884,-7.25264 2.278337,-10.64022 0.94188,-2.88794 2.334017,-5.49351 4.228873,-7.879454 1.530781,-2.290887 3.48557,-4.212839 5.502817,-6.079384 5.167916,-4.8377 10.489144,-8.593614 17.146476,-11.632044 3.564184,-1.990238 7.254814,-3.720682 11.011778,-5.317151 4.629817,-2.020231 9.25794,-4.075483 13.993437,-5.831626 2.890647,-1.049763 5.799526,-2.058476 8.822632,-2.660771 0,0 -8.969976,6.746171 -8.969976,6.746171 z"
       inkscape:connector-curvature="0"
       style="stroke-width:0.26458332" />
  </g>
</svg>
